<?xml version="1.0" encoding="utf-8"?>
<!-- Generator: Adobe Illustrator 19.1.0, SVG Export Plug-In . SVG Version: 6.00 Build 0)  -->
<svg version="1.1" xmlns="http://www.w3.org/2000/svg" xmlns:xlink="http://www.w3.org/1999/xlink" x="0px" y="0px"
	 viewBox="0 0 960.1 792" style="enable-background:new 0 0 960.1 792;" xml:space="preserve">
<style type="text/css">
	.st0{fill:url(#SVGID_1_);stroke:#834136;stroke-width:3;stroke-miterlimit:10;}
	.st1{fill:url(#SVGID_2_);stroke:#834136;stroke-width:3;stroke-miterlimit:10;}
	.st2{fill:url(#SVGID_3_);stroke:#834136;stroke-width:3;stroke-miterlimit:10;}
	.st3{fill:none;stroke:#834136;stroke-width:3;stroke-miterlimit:10;}
	.st4{fill:url(#SVGID_4_);}
	.st5{fill:url(#SVGID_5_);}
	.st6{fill:none;stroke:#834136;stroke-width:2;stroke-miterlimit:10;}
	.st7{fill:#DDDDDE;}
	.st8{fill:none;stroke:#CBC6C6;stroke-width:2;stroke-miterlimit:10;}
	.st9{fill:#EFEFEF;}
	.st10{fill:none;stroke:#DBD5D5;stroke-width:2;stroke-miterlimit:10;}
	.st11{fill:#DCDDDD;}
	.st12{fill:#EAEAEA;}
	.st13{fill:#E69457;}
	.st14{fill:none;stroke:#7C583D;stroke-miterlimit:10;}
	.st15{fill:#DDD2C5;stroke:#D1B895;stroke-width:2;stroke-miterlimit:10;}
	.st16{fill:#F3E3CE;stroke:#D1B895;stroke-width:2;stroke-miterlimit:10;}
	.st17{fill:#E5E4E3;stroke:#A8A7A7;stroke-miterlimit:10;}
	.st18{fill:url(#SVGID_6_);}
	.st19{fill:url(#SVGID_7_);}
	.st20{fill:none;stroke:#C02942;stroke-width:2;stroke-miterlimit:10;}
	.st21{fill:none;stroke:#4DA09C;stroke-width:2;stroke-miterlimit:10;}
	.st22{fill:#4DA09D;stroke:#020202;stroke-miterlimit:10;}
	.st23{fill:none;stroke:#C02942;stroke-width:2;stroke-miterlimit:10;stroke-dasharray:14.0667,14.0667;}
	.st24{fill:#C02942;stroke:#000000;stroke-miterlimit:10;}
	.st25{fill:none;stroke:#000000;stroke-width:2;stroke-miterlimit:10;}
	.st26{stroke:#4CA09D;stroke-width:2;stroke-miterlimit:10;}
	.st27{fill:#4CA09D;stroke:#000000;stroke-miterlimit:10;}
	.st28{fill:none;}
	.st29{fill:none;stroke:#C02942;stroke-width:4;stroke-miterlimit:10;}
	.st30{fill:none;stroke:#C02942;stroke-width:2;stroke-miterlimit:10;stroke-dasharray:0.9968,0.9968;}
	.st31{fill:none;stroke:#C02942;stroke-width:2;stroke-miterlimit:10;stroke-dasharray:0.9992,0.9992;}
	.st32{fill:#58595B;stroke:#000000;stroke-miterlimit:10;}
	.st33{fill:none;stroke:#000000;stroke-miterlimit:10;}
	.st34{font-family:'MyriadPro-Regular';}
	.st35{font-size:12px;}
	.st36{fill:none;stroke:#000000;stroke-width:4;stroke-miterlimit:10;}
	.st37{fill:#070808;}
	.st38{display:none;}
	.st39{display:inline;opacity:0.45;fill:#58595B;stroke:#000000;stroke-miterlimit:10;}
	.st40{display:inline;opacity:0.45;}
	.st41{fill:none;stroke:#020202;stroke-width:2;stroke-miterlimit:10;}
	.st42{fill:none;stroke:#4DA09C;stroke-width:4;stroke-miterlimit:10;}
	.st43{fill:none;stroke:#4CA09D;stroke-width:2;stroke-miterlimit:10;}
	.st44{fill:none;stroke:#4CA09D;stroke-width:2;stroke-miterlimit:10;stroke-dasharray:1.0013,1.0013;}
	.st45{fill:none;stroke:#4CA09D;stroke-width:2;stroke-miterlimit:10;stroke-dasharray:1.0089,1.0089;}
	.st46{fill:#58595B;stroke:#000000;stroke-width:2;stroke-miterlimit:10;}
	.st47{opacity:0.3;}
	.st48{font-size:10px;}
	.st49{font-size:13px;}
	.st50{fill:none;stroke:#070808;stroke-miterlimit:10;}
	.st51{font-size:14px;}
	.st52{font-size:7px;}
</style>
<g id="Muscle">
	<g>
		<g>
			
				<linearGradient id="SVGID_1_" gradientUnits="userSpaceOnUse" x1="624.3792" y1="824.0947" x2="764.3868" y2="824.0947" gradientTransform="matrix(0 -1 -1 0 974.6699 1040.002)">
				<stop  offset="0" style="stop-color:#7B2A26"/>
				<stop  offset="0.1908" style="stop-color:#84392D"/>
				<stop  offset="0.5967" style="stop-color:#995B4A"/>
				<stop  offset="1" style="stop-color:#B38171"/>
			</linearGradient>
			<path class="st0" d="M166,275.6c-17.2,0-36.7,12.9-29.2,58.5c4.2,22.8,13.7,43.3,19.4,58c6.2,14.7,8.5,23.5,9.8,23.6"/>
			<linearGradient id="SVGID_2_" gradientUnits="userSpaceOnUse" x1="165.9951" y1="252.5938" x2="165.9951" y2="252.5938">
				<stop  offset="0" style="stop-color:#933432"/>
				<stop  offset="0.1366" style="stop-color:#9C473B"/>
				<stop  offset="0.43" style="stop-color:#B57563"/>
				<stop  offset="0.8539" style="stop-color:#E6CABE"/>
				<stop  offset="1" style="stop-color:#FFF1EA"/>
			</linearGradient>
			<path class="st1" d="M166,252.6"/>
			
				<linearGradient id="SVGID_3_" gradientUnits="userSpaceOnUse" x1="624.3792" y1="-985.9196" x2="764.3868" y2="-985.9196" gradientTransform="matrix(0 -1 1 0 1167.3345 1040.002)">
				<stop  offset="0" style="stop-color:#852F2B"/>
				<stop  offset="0.1366" style="stop-color:#8F3F34"/>
				<stop  offset="0.43" style="stop-color:#AA695B"/>
				<stop  offset="0.8539" style="stop-color:#E0B6B2"/>
				<stop  offset="1" style="stop-color:#FCDCDE"/>
			</linearGradient>
			<path class="st2" d="M166,275.6c17.2,0,36.7,12.9,29.2,58.5c-4.2,22.8-13.7,43.3-19.4,58c-6.2,14.7-8.5,23.5-9.8,23.6"/>
			<path class="st3" d="M166,275.6c0,45.3,0,92.5,0,137.3"/>
		</g>
	</g>
	<g>
		
			<linearGradient id="SVGID_4_" gradientUnits="userSpaceOnUse" x1="699.7238" y1="-544.4846" x2="846.8708" y2="-544.4846" gradientTransform="matrix(-0.1669 -0.986 0.7055 -0.1195 651.5804 1066.5125)">
			<stop  offset="0" style="stop-color:#933432"/>
			<stop  offset="0.1366" style="stop-color:#9C473B"/>
			<stop  offset="0.43" style="stop-color:#B57563"/>
			<stop  offset="0.8539" style="stop-color:#E6CABE"/>
			<stop  offset="1" style="stop-color:#FFF1EA"/>
		</linearGradient>
		<path class="st4" d="M137.8,294.6c2.7-0.8,2.2,24.4,5.6,39.6c3.2,15.2,12.4,34.7,16.9,49.6c4.3,15,6.5,28.9,5.5,39.2
			c-0.9,10.3-5,17.1-11.7,17.9c-6.7,0.8-14.4-4.6-20.6-13.8c-6.2-9.3-10.7-22.5-12.1-37.5c-1.5-15,1.6-34.8,5.2-51
			C130.5,322.4,135.3,295.4,137.8,294.6z"/>
		<path class="st3" d="M137.8,294.6c2.7-0.8,2.2,24.4,5.6,39.6c3.2,15.2,12.4,34.7,16.9,49.6c4.3,15,6.5,28.9,5.5,39.2
			c-0.9,10.3-5,17.1-11.7,17.9c-6.7,0.8-14.4-4.6-20.6-13.8c-6.2-9.3-10.7-22.5-12.1-37.5c-1.5-15,1.6-34.8,5.2-51
			C130.5,322.4,135.3,295.4,137.8,294.6z"/>
	</g>
	<g>
		
			<linearGradient id="SVGID_5_" gradientUnits="userSpaceOnUse" x1="472.4764" y1="-519.1486" x2="627.9627" y2="-519.1486" gradientTransform="matrix(0.2209 -0.9753 0.607 0.1375 387.8105 972.9607)">
			<stop  offset="0" style="stop-color:#933432"/>
			<stop  offset="0.1366" style="stop-color:#9C473B"/>
			<stop  offset="0.43" style="stop-color:#B57563"/>
			<stop  offset="0.8539" style="stop-color:#E6CABE"/>
			<stop  offset="1" style="stop-color:#FFF1EA"/>
		</linearGradient>
		<path class="st5" d="M189.9,284.3c1.8,0.9,7.8,23.9,13.9,45.1c5.6,21.2,11.2,45.9,7.9,60.7c-3.2,14.8-9.3,27.9-16.1,37
			c-6.8,9.1-14.1,14.3-19.9,13.4c-5.8-0.9-9-7.8-9.1-18.1c-0.2-10.3,2.7-24.1,7.9-38.9c5.4-14.8,13.3-39.4,14.7-59.4
			C190.4,304,187.4,283.3,189.9,284.3z"/>
		<path class="st3" d="M189.9,284.3c1.8,0.9,7.8,23.9,13.9,45.1c5.6,21.2,11.2,45.9,7.9,60.7c-3.2,14.8-9.3,27.9-16.1,37
			c-6.8,9.1-14.1,14.3-19.9,13.4c-5.8-0.9-9-7.8-9.1-18.1c-0.2-10.3,2.7-24.1,7.9-38.9c5.4-14.8,13.3-39.4,14.7-59.4
			C190.4,304,187.4,283.3,189.9,284.3z"/>
	</g>
	<g>
		<g>
			<path class="st6" d="M201.1,341.4c10.1,37.9,1.8,76.3-19,104.1"/>
			<path class="st6" d="M200.6,362.2c2.5,29.8-6.2,58.3-22.8,80"/>
			<path class="st6" d="M196.6,368.1c0.6,26.6-8,51.7-23.2,71"/>
			<path class="st6" d="M192.1,376.7c-1.6,22.4-9.8,43.1-23,59.4"/>
			<path class="st6" d="M166,432.6"/>
			<path class="st6" d="M176.8,395.8"/>
			<path class="st6" d="M161.6,431.3"/>
			<path class="st6" d="M168.7,406.9"/>
		</g>
	</g>
	<g>
		<g>
			<path class="st6" d="M126.8,358.1c-3.8,34.6,4.3,68.8,22.3,96.9"/>
			<path class="st6" d="M129.3,377.5c1,27.4,9.4,53.6,24.2,75.9"/>
			<path class="st6" d="M133,383.2c2.3,24.8,10.9,48.4,24.8,68.5"/>
			<path class="st6" d="M137.7,391.7c3.7,21.2,12.1,41.1,24.5,58.4"/>
			<path class="st6" d="M162.7,448.7"/>
			<path class="st6" d="M150.6,410.2"/>
			<path class="st6" d="M166.5,448"/>
			<path class="st6" d="M158.4,422.5"/>
		</g>
	</g>
	<g>
		<g>
			<g>
				<g>
					<path class="st7" d="M165.2,429c0,0-0.6,0-1.7,0c-0.2,0-0.4,0-0.7,0c-0.2,0.1-0.5,0.1-0.8,0c-0.3,0-0.6-0.2-0.9,0
						c-0.3,0-0.6-0.1-1,0c-0.3,0-0.7,0-1,0c-1.1,0-2.2,0-3.4,0c-0.3,0-0.6,0-0.9,0c-0.3,0-0.6-0.1-1,0c-0.3,0.1-0.7-0.1-1,0
						c-0.3,0-0.6,0.1-1,0c-0.3,0-0.7,0-1,0c-2.3,0-4.7,0-6.8,0c-0.3,0-0.7,0-1,0c-0.4-0.1-0.7-0.1-1,0c-0.3,0-0.7-0.1-0.9,0
						c-0.3,0-0.6,0-0.9,0c-0.3,0.1-0.6-0.1-0.8,0c-0.3,0-0.5,0-0.8,0c-2.3,0-3.7,0-3.7,0c0.2-0.1,10.8,29.1,15,60.8
						c5.2,31.7,4.1,65.7,4.1,74.5c0,0.7,0,1.3,0,1.7c0,0.4,0,1,0,0.6c0,0.4,0.4,0,1.1,0c0.2,2.1,0.9,2.9,1.2,0c0,3.6,1.4,0.7,1.4,0
						c0,0.7,0.1,0.9,0.3,3.2c-0.1-2.4,0.3-2.9,0.5-3.2c-0.1-0.1,0.5-2.2,0.4,1.9c0.1-4.1,0.1-3.7,0.4-1.9c-0.3-1.8,0.2,1.1,0.5,1
						c0.3-0.1,0.5-0.4,0.4-0.8c0.1,0.8,0.6-0.2,0.6-0.2c0,0.2,0.2,0.8,0.6,0.6c0.3-0.2,0.7-0.6,0.9-0.6c0.5,0,0.9,0,1.1,0
						c0.7,0,1.1,0,1.1,0s0-0.1,0-0.6c0,0.1,0-0.3,0-1.7c0,0.6,0-0.7,0-2.7c0,0.4,0-2.1,0-3.7c0-1.4,0-2.9,0-4.5
						C164.4,518.9,165.1,428.6,165.2,429z"/>
					<path class="st8" d="M141.8,432.8c12.4,44.2,15.1,89.6,14.2,133.8"/>
					<path class="st8" d="M148.6,437.1c0,0,4.3,20.6,6.6,45.6c2.6,24.9,3.2,54.2,3.2,70.6c0,1.7,0,5,0,4.6c0,2.6-0.1,6.8,0,3.7
						c0,3.6-0.1,4.5,0,2.8c0,1.9-0.1,2.1,0,1.7c-0.1,0.5-0.1,0.5,0,0.6"/>
					<path class="st8" d="M154.3,437.1c1-0.3,7.3,76.3,6.2,111.8c0,1.7,0,3.3,0,4.8c0,0.5,0,1.8,0,3c0,1.3-0.1,9.1,0,3
						c-0.1,6.3,0,0.2,0-1.9c0,2.1-0.1,9.8,0,4.4c-0.1,5.4-0.1,5.4,0,0.9c-0.1,4.5,0,3.8,0-3c-0.1,6.9-0.1,7.5,0,4.3
						c0,3.1,0,3.1,0-2.9c-0.1,6-0.1,6.1,0,4.4c0,1.6,0,1.6,0-1.4c0,3,0,3,0,2.3c0,0.7,0,0.7,0-2.6c0,3.3-0.1,3.3-0.1,3.2
						c0,0.1,0,0.1,0,0.1s0,0,0-1.6c0,1.6,0,1.6-0.1,2.6c0-1,0-1,0.1-2"/>
					<path class="st8" d="M159.7,432.8c0.6-0.3,3.6,85.8,3,120c0,1.7,0,3.3,0,4.7c0,2.3,0,8.9,0,3.8c0,5.1,0,5.3,0,2.9
						c0,2.4,0,2.4,0,1.8c0,0.6,0,0.6,0,0.6"/>
					<path class="st8" d="M165.2,429c-0.5,45.4-0.7,92.2-0.6,137.6"/>
					<path class="st8" d="M134.9,429c16.6,45.4,20.2,92.2,19.1,137.6"/>
				</g>
				<g>
					<path class="st9" d="M192.4,432.3c0,0-5.2,0-10.9,0c-0.4,0-0.7,0-1.1,0c-0.4,0.1-0.7,0-1.1,0c-0.4,0-0.7,0.1-1.1,0
						c-0.4,0-0.7,0-1.1,0c-5.3,0-9.9,0-9.9,0c-0.4-0.3-2.4,86.1-2,120.4c0,1.7,0,4.3,0,4.7c0,2.3,0,7.4,0,3.9c0,4,0,4.4,0,2.9
						c0,1.6,0,1.6,0,1.8c0-0.1,0-0.1,0,0.6c0-0.7,0.4-0.7,0.4,0c0-0.7,0.9-0.6,1,0c0-0.5,0.1-3.1,0.2-0.9c0.3,1.2,0.4,1.7,0.4,1.7
						s0.2-1.2,0.4-2.2c0.3-0.2,0.4,1.3,0.4,1.4c0-0.1,0.2,0.6,0.4-1.3c0.2,1.1,0.4-0.4,0.4,2.1c0-2.5,0.5,1.5,0.5-1.2
						c0.1,1.2,0.2,0.9,0.3,1.6c0.1-0.7,0.2-2,0.2-1.1c0-0.8,0.1,0.2,0.2,1.2c0-0.9,0.2-0.4,0.2-1.4c0,1.1,0.3,0.3,0.3,2.3
						c0.2-1.8,0.2-2.9,0.2-0.9c0-2,0.2,0.4,0.4,1.1c0.2-0.6,0.5-1.6,0.3-2.3c0.2,0.7,0.4,1.2,0.4,1.3c0-0.1,0.5-0.3,0.4-1.3
						c0.1,1,0.7,2.8,0.7,0c0.1,2.6,0.9,1.5,1,0c0.2,1.4,0.4,1.8,0.4,0c0,1.8,0,1.1,0-0.6c0,1,0-0.8,0-1.8c0-0.6,0-1.7-0.1-2.9
						c-0.1-12.2-0.4-44.7,4.5-73.9C183,458.2,192.3,432.2,192.4,432.3z"/>
					<path class="st10" d="M171.6,437.4c-0.6-0.2-5.1,67.9-4.6,105.4c0,1.9,0,3.7,0,5.4c0,3.1,0,9,0,4.8c0,4.2,0,4.2,0,4.2
						c0,0,0,0,0,2.2c0-2.2,0-2.2,0.1,2.6c-0.1-4.7-0.1-4.7-0.1,0c0-4.8,0-3.1,0.1,2.2c-0.1-5.5-0.1-7-0.1-3.1c0-4,0.1,1.7,0.2,4.3
						c0,1,0,1.3-0.1,0.6c0.2,0.7,0.2,1,0.2,0.8c0-0.2-0.3-7.6-0.2-2.6c-0.1-5,0.2,2.4,0.2,2.8c0,0.4-0.1,0.5-0.2,0.7
						c0.1-0.2,0.2-0.3,0.2-0.8c0-0.5-0.3-8.7-0.3-3c0-5.7,0.2,2.5,0.3,3c0,0.5,0,0.8-0.1,1.3c0.2-1,0.2-1,0.1-1.3
						c0.1,0.3,0.1,0.3-0.1,1.6c0.2-1.3,0.2-1.3-0.2-2.8c0.3,1.5,0.3,1.5,0.2,2.9c0.2-1.4,0.2-1.4,0.1-1.1c0.1-0.3,0.1-0.3-0.1,1.1
						c0.2-1.5,0.1-1.5-0.2-2.3"/>
					<path class="st10" d="M176,440.7c-1.3-0.3-8.6,79.1-7.1,111.9c0,0.9,0,1.8,0,2.5c0,0.9,0,4.1,0,2.3c0,2.3,0.1,8.2,0,3.8
						c0,4.6,0,4.6,0,0.1c0,4.6,0,4.8,0,2.9c0,1.8,0,1.6,0-2.9c0,4.6,0,4.9,0,3.7c0,1.2,0,1.3,0,0.2c0,1.1,0,0.9,0-0.9
						c0,1.9,0,2.3,0,1.8c0,0.5,0,0.8,0,0.6"/>
					<path class="st10" d="M180.6,440.7c0.1,0-4.2,19.6-6.6,43.5c-2.7,23.9-3.4,52.1-3.3,68.3c0,1.7,0,3.7,0,4.8c0,1.8,0,5.5,0,3.9
						c0,2.8,0.1,4.1,0,2.9c0,1.7,0,1.9,0,1.8c0,0.3,0,0.4,0,0.6"/>
					<path class="st10" d="M186.2,437.4c-11.7,42.7-14.3,86.6-13.4,129.2"/>
					<path class="st10" d="M192.4,432.3c-15.5,44.3-19,90-17.9,134.3"/>
				</g>
				<path class="st10" d="M167.3,432.3c-1.7,44.3-2.1,90-2,134.3"/>
			</g>
		</g>
		<path class="st11" d="M164.4,429c0,0.5-2.3,1-5.8,1.3c-0.9,0.1-1.9,0.2-2.9,0.2c-0.2,0-0.4,0-0.6,0c-0.2,0-0.4,0-0.7,0
			c-0.4,0-0.9,0-1.4,0.1c-0.4-0.3-0.9,0-1.4,0.1c-0.5,0-1,0-1.5,0c-2,0-3.9,0-5.6,0c-0.9,0-1.7,0-2.4-0.1c-0.4,0-0.7,0-1.1-0.1
			c-0.4,0-0.7,0-1-0.1c-0.9-0.1-1.6-0.2-2.2-0.3c-0.6-0.1-1.1-0.2-1.4-0.3c-0.3-0.1-0.5-0.2-0.5-0.4c0-0.1,0.2-0.3,0.4-0.4
			c0.1-0.1,0.3-0.1,0.5-0.2c0.2-0.1,0.5-0.1,0.7-0.2c0.3-0.8,0.2-3.1,0.5-3.2s1.1,2.9,1.5,2.8c-0.1-0.2,0.8-0.1,1.2-0.2
			c0.4,0,0.9-0.1,1.4-0.1c0-0.2,0.6-4.2,1-4.2c0.4,0,1,4.1,1.5,4c2.1-0.2,1.5-8.9,2.5-8.9c0.5,0,1.2,8.7,1.6,8.7c0.5,0,1,0,1.5,0
			c0.3-4.7,1,0,1.5,0c0.2,0,0.5,0,0.7,0c0.2,0,1.9-8.4,1.8-3.8c0,1.6,0,3.8,0.5,3.8c0.3,0,0.5,0,0.8,0c0.3,0,0.9-0.4,0.7,0
			c0.5,0,1,0,1.4,0c0.5,0,1.7-4.9,1.3,0.1c0.4,0,0.8,0.1,1.2,0.1c0.4,0,3.2-10.6,2.9-5.8c0,3.7-0.5,6.1,0,6.2
			C163.9,428.6,164.4,428.8,164.4,429z"/>
		<path class="st12" d="M191.4,434.5c0,0.6-1.9,0.9-4.8,0.9c-0.7,0-1.5,0-2.4,0c-0.2,0-0.4,0-0.5,0c-0.2,0-0.4,0-0.5,0
			c-0.4,0-0.7,0-1.1-0.1c-0.3-0.4-0.8-0.1-1.2-0.1c-0.4,0-0.8-0.1-1.2-0.1c-1.6-0.2-3.2-0.4-4.5-0.6c-0.7-0.1-1.4-0.2-2-0.4
			c-0.3-0.1-0.6-0.1-0.9-0.2c-0.3-0.1-0.6-0.1-0.8-0.2c-0.7-0.2-1.3-0.4-1.8-0.5c-0.5-0.2-0.9-0.4-1.2-0.5c-0.3-0.2-0.4-0.3-0.4-0.5
			c0-0.2,0.1-0.3,0.4-0.4c0.1-0.1,0.3-0.1,0.5-0.2c0.2,0,0.4-0.1,0.6-0.1c0.3-0.8,0.3-3.6,0.6-3.6c0.3,0,0.7,3.5,1,3.4
			c0-0.2,0.7,0,1,0c0.4,0,0.7,0,1.1,0c0-0.2,0.7-4.8,1-4.8c0.3,0,0.6,4.9,1,4.9c1.7,0,1.7-10.2,2.5-10.1c0.4,0,0.5,10.3,0.9,10.3
			c0.4,0,0.8,0.1,1.2,0.1c0.5-5.5,0.8,0.1,1.2,0.1c0.2,0,0.4,0,0.6,0.1c0.2,0,2-9.6,1.6-4.2c-0.1,1.9-0.2,4.4,0.2,4.5
			c0.2,0,0.4,0.1,0.6,0.1c0.2,0,0.7-0.3,0.6,0.1c0.4,0.1,0.8,0.1,1.2,0.2c0.4,0.1,1.6-5.5,1.1,0.2c0.3,0.1,0.7,0.1,1,0.2
			c0.3,0.1,3.1-12.1,2.6-6.5c-0.2,4.3-0.7,7.1-0.3,7.2C190.9,433.9,191.4,434.2,191.4,434.5z"/>
	</g>
	<path class="st11" d="M142.2,287.4c0-0.2,2.1-0.4,5.2-0.6c0.8,0,1.7-0.1,2.6-0.1c0.2,0,0.4,0,0.6,0c0.2,0,0.4,0,0.6,0
		c0.4,0,0.8,0,1.2,0c0.4,0.1,0.8,0,1.3,0c0.4,0,0.9,0,1.3,0c1.8,0,3.5,0,5,0c0.8,0,1.5,0,2.2,0c0.3,0,0.7,0,1,0c0.3,0,0.6,0,0.9,0
		c0.8,0,1.4,0.1,2,0.1c0.6,0,1,0.1,1.3,0.1c0.3,0,0.5,0.1,0.5,0.2c0,0.1-0.1,0.1-0.4,0.2c-0.1,0-0.3,0.1-0.5,0.1
		c-0.2,0-0.4,0.1-0.7,0.1c-0.3,0.3-0.2,1.3-0.5,1.3c-0.3,0-0.9-1.2-1.3-1.2c0.1,0.1-0.7,0-1.1,0.1c-0.4,0-0.8,0-1.2,0.1
		c0,0.1-0.5,1.8-0.9,1.8c-0.4,0-0.9-1.7-1.3-1.7c-1.9,0.1-1.4,3.8-2.3,3.8c-0.4,0-1-3.7-1.4-3.7c-0.4,0-0.9,0-1.3,0
		c-0.3,2-0.9,0-1.3,0c-0.2,0-0.4,0-0.6,0c-0.2,0-1.8,3.5-1.6,1.6c0-0.7,0-1.6-0.5-1.6c-0.2,0-0.5,0-0.7,0c-0.2,0-0.8,0.2-0.7,0
		c-0.4,0-0.9,0-1.3,0c-0.4,0-1.5,2.1-1.2,0c-0.4,0-0.7,0-1.1,0c-0.3,0-2.9,4.5-2.6,2.5c0-1.6,0.5-2.6,0.1-2.6
		C142.7,287.6,142.2,287.5,142.2,287.4z"/>
	<path class="st12" d="M170.6,286.6c0-0.3,1.6-0.5,4-0.7c0.6,0,1.3-0.1,2-0.1c0.1,0,0.3,0,0.5,0c0.2,0,0.3,0,0.5,0c0.3,0,0.6,0,1,0
		c0.3,0.1,0.7,0,1,0c0.3,0,0.7,0,1,0c1.4,0,2.7,0,3.9,0c0.6,0,1.2,0,1.7,0c0.3,0,0.5,0,0.8,0c0.2,0,0.5,0,0.7,0
		c0.6,0,1.1,0.1,1.6,0.1c0.4,0,0.8,0.1,1,0.2c0.2,0.1,0.4,0.1,0.4,0.2c0,0.1-0.1,0.1-0.3,0.2c-0.1,0-0.2,0.1-0.4,0.1
		c-0.1,0-0.3,0.1-0.5,0.1c-0.2,0.4,0,1.6-0.3,1.6c-0.2,0-0.8-1.5-1.1-1.4c0,0.1-0.6,0.1-0.9,0.1c-0.3,0-0.6,0-0.9,0.1
		c0,0.1-0.2,2.1-0.5,2.2c-0.3,0-0.9-2.1-1.2-2.1c-1.4,0.1-0.7,4.5-1.4,4.6c-0.3,0-1.1-4.5-1.5-4.4c-0.3,0-0.7,0-1,0c0,2.4-0.7,0-1,0
		c-0.2,0-0.3,0-0.5,0c-0.2,0-1,4.3-1.1,1.9c0-0.8-0.2-1.9-0.5-1.9c-0.2,0-0.4,0-0.5,0c-0.2,0-0.6,0.2-0.5,0c-0.3,0-0.7,0-1,0
		c-0.3,0-1,2.5-0.9,0c-0.3,0-0.6,0-0.8,0c-0.3,0-1.8,5.4-1.8,3c-0.1-1.9,0.1-3.1-0.2-3.2C171,286.9,170.6,286.7,170.6,286.6z"/>
	<g>
		<g>
			<g>
				<path class="st7" d="M141,287.2c0,0,0.5,0,1.5,0c0.2,0,0.4,0,0.6,0c0.2,0,0.5,0,0.7,0c0.3,0,0.5,0,0.8,0c0.3,0,0.5,0,0.9,0
					c0.3,0,0.6,0,0.9,0c0.9,0,2,0,3.1,0c0.3,0,0.6,0,0.8,0c0.3,0,0.6,0,0.9,0c0.3,0,0.6,0,0.9,0c0.3,0,0.6,0,0.9,0
					c0.3,0,0.6,0,0.9,0c2.1,0,4.1,0,6.1,0c0.3,0,0.6,0,0.9,0c0.3,0,0.6,0,0.9,0c0.3,0,0.6,0,0.8,0c0.3,0,0.5,0,0.8,0
					c0.3,0,0.5,0,0.8,0c0.2,0,0.5,0,0.7,0c2,0,3.3,0,3.3,0c-0.2-8.2-0.3-16.7-0.4-25c0,0-0.7,0-1.7,0c-0.3-3.2-1.4-1.1-1.8,0
					c-0.3-0.9-1.4,0-2.2,0c-0.8,0-1.6,0-2.4,0c-0.4,0-0.8,0-1.2,0c-0.3-1-0.4-2.3-1.2,0c-0.4,0-1.4-0.6-1.2,0
					c-0.3-0.6,0.1-6.2-1.1,0c1.2-6.2,0.1-0.8-0.5-0.5c-0.5,0.2-1.1,0.5-1.3,0.5c-1,0-1.7,0-1.7,0C149.1,270.5,145.9,279,141,287.2z"
					/>
				<path class="st8" d="M162.8,286.5c0,0,0.4-3.8,0.7-8.5c0.2-2.3,0.3-4.9,0.5-7.2c0.2-2.7,0.4-8.6,0.3-6c0.1-3.2,0.1-3.9,0.1-2.5"
					/>
				<path class="st8" d="M157.5,285.7c1.7-7.8,2.8-15.7,3.5-23.5"/>
				<path class="st8" d="M152.2,285.7c0,0,1.3-3.7,2.4-8.3c0.3-1.1,0.6-2.3,0.9-3.5c0.3-1.2,1.3-6,0.8-3.5c0.8-3.9,1.8-11.1,1-5.3
					c0.8-5.8,0.8-6.8,0.1-0.6c0.8-6.3,0.9-7.9,0.6-3.5c0.3-4.4,0.3-4.3-0.2,1.1"/>
				<path class="st8" d="M146.4,286.5c0,0,1.8-3.8,3.5-8.5c0.4-1.2,0.8-2.4,1.2-3.6c0.4-1.2,0.8-2.4,1.1-3.6
					c0.4-1.2,2.5-8.6,1.1-3.9c1.5-4.8,1.7-6.3,0.5-2.2c1.3-4.2,1.8-6.9,0.5-2.5"/>
				<path class="st8" d="M141,287.2c4.9-8.2,8.1-16.7,10.2-25"/>
				<path class="st8" d="M167.9,287.2c-0.2-8.2-0.3-16.7-0.4-25"/>
			</g>
			<g>
				<g>
					<path class="st9" d="M169.7,286.6c0,0,4.8,0,10,0c0.3,0,0.7,0,1,0c0.3,0,0.7,0,1,0c0.3,0,0.6,0,1,0c0.3,0,0.6,0,1,0
						c4.8,0,9,0,9,0c-4.7-8-7.8-16.3-9.9-24.4c0,0-0.4,0-1,0c-0.7,0-2.2-1.5-2.6,0c-0.5,0-1.1,0-1.7,0c-0.6,0-1.2,0-1.8,0
						c-0.4-2.9-1.5-3.5-1.2-2.2c-0.3-1.2-0.9,2.2-1.3,2.2c-0.4,0-0.8,0-1.2,0c-0.4,0-0.7,0-1.1,0c-0.7,0-1.2,0-1.6,0
						c-0.5,0.8-0.8-3.9-0.6,0c-0.2-3.9-0.2-3.2,0.1,2.5c-0.3-5.8,0-0.1,0.2,6.1c-0.2-5.5,0.2,4.9,0.3,7.2
						C169.5,282.7,169.7,286.6,169.7,286.6z"/>
					<path class="st10" d="M187.8,285.7c0,0-0.4-0.9-1.1-2.4c-0.7-1.5-1.5-3.6-2.3-5.8c-1-2.3-3.8-12.3-2.3-7
						c-1.5-5.4-2.6-10.5-1.5-5.8c-1.1-4.7-1.4-7.9-0.5-2.4"/>
					<path class="st10" d="M183,285.1c-2.7-7.6-4.6-15.3-5.8-22.9"/>
					<path class="st10" d="M178.4,285.1c0,0-1-3.6-1.8-8c-0.2-1.1-0.4-2.2-0.6-3.4c-0.2-1.1-1.1-7-0.6-3.4
						c-0.9-5.6-1.3-10.9-0.8-5.9c-0.5-5-0.5-4.8,0,0.2c-0.5-5-0.8-6.7-0.3-2.4"/>
					<path class="st10" d="M174,285.7c0,0-0.6-3.7-1.1-8.2c-0.3-2.3-0.5-4.7-0.8-7c-0.5-5.8-0.7-8.3-0.5-5.8
						c-0.2-2.4-0.2-2.4-0.2-2.4"/>
					<path class="st10" d="M169.7,286.6c0,0-0.2-3.9-0.5-8.6c-0.1-2.3-0.5-12.8-0.3-7.2c-0.2-6.2-0.5-11.8-0.2-6.1
						c-0.3-5.8-0.3-6.4-0.1-2.5"/>
				</g>
				<path class="st10" d="M192.7,286.6c-4.7-8-7.8-16.3-9.9-24.4"/>
			</g>
		</g>
	</g>
	<g>
		<path class="st13" d="M134.4,336.1c0.7-0.1,1,10.1,2.6,16.4c1.5,6.3,4.5,14.6,5.9,20.8c1.4,6.2,2.1,11.9,2.2,16
			c0.3,4.2,0.8,18.7-0.2,18.8c-0.5,0.1-3-14.2-4.8-18.2c-1.5-4-3.2-9.5-4.7-15.7c-1.5-6.2-2.4-14.2-2.4-20.7
			C132.9,347,133.6,336.2,134.4,336.1z"/>
		<path class="st14" d="M134.4,336.1c0.7-0.1,1,10.1,2.6,16.4c1.5,6.3,4.5,14.6,5.9,20.8c1.4,6.2,2.1,11.9,2.2,16
			c0.3,4.2,0.8,18.7-0.2,18.8c-0.5,0.1-3-14.2-4.8-18.2c-1.5-4-3.2-9.5-4.7-15.7c-1.5-6.2-2.4-14.2-2.4-20.7
			C132.9,347,133.6,336.2,134.4,336.1z"/>
	</g>
</g>
<g id="Cord">
	<g>
		<path class="st15" d="M563,363.9c0,10-2.6,19.8-7.4,28.9c-4.7,9.1-11.6,17.5-20.1,24.6c-8.5,7.1-18.5,13-29.7,17.2
			c-40.1,0-23.5-17.7-36.4-17.7c-12.9,0,3,17.7-36.4,17.7c-11.2-4.1-21.3-10-29.7-17.2c-8.5-7.1-15.3-15.5-20.1-24.6
			c-4.7-9.1-7.4-18.9-7.4-28.9c0-10,2.6-19.7,7.4-28.7c4.7-9,11.6-17.2,20.1-24.2c8.5-7,18.5-12.7,29.7-16.7
			c36.4-10.1,23.5,9.2,36.4,9.2c12.9,0,0-18.2,36.4-9.2c11.2,4,21.3,9.7,29.7,16.7c8.5,7,15.3,15.2,20.1,24.2
			C560.4,344.2,563,353.9,563,363.9z"/>
		<path class="st16" d="M563,355c0,10-2.6,19.8-7.4,28.9c-4.7,9.1-11.6,17.5-20.1,24.6c-8.5,7.1-18.5,13-29.7,17.2
			c-40.1,0-23.5-17.7-36.4-17.7c-12.9,0,3,17.7-36.4,17.7c-11.2-4.1-21.3-10-29.7-17.2c-8.5-7.1-15.3-15.5-20.1-24.6
			c-4.7-9.1-7.4-18.9-7.4-28.9c0-10,2.6-19.7,7.4-28.7c4.7-9,11.6-17.2,20.1-24.2c8.5-7,18.5-12.7,29.7-16.7
			c36.4-10.1,23.5,9.2,36.4,9.2c12.9,0,0-18.2,36.4-9.2c11.2,4,21.3,9.7,29.7,16.7c8.5,7,15.3,15.2,20.1,24.2
			C560.4,335.3,563,345.1,563,355z"/>
		<g>
			<path class="st17" d="M469.9,370.7c0,0,25-17.9,23.3,11.9c-1.7,29.9,69.5,23,37.3,0c-32.2-23,16.9-23.9-9.8-34.1
				c-26.7-10.2,12.2-36.5,3.6-46.9c-8.5-10.5-24.5,3.4-35.4,27.5c-10.9,24.1-19,20.5-19,20.5h-1c0,0-8.1,3.6-19-20.5
				c-10.9-24.1-26.9-38-35.4-27.5c-8.5,10.5,30.3,36.7,3.6,46.9c-26.7,10.2,22.4,11.1-9.8,34.1c-32.2,23,39,29.9,37.3,0
				c-1.7-29.9,23.3-11.9,23.3-11.9H469.9z"/>
		</g>
	</g>
</g>
<g id="Efferents">
	<linearGradient id="SVGID_6_" gradientUnits="userSpaceOnUse" x1="1166.9877" y1="1541.9152" x2="873.4791" y2="1541.9152">
		<stop  offset="0" style="stop-color:#FFFFFF;stop-opacity:0.8"/>
		<stop  offset="0.1021" style="stop-color:#FDF9F9;stop-opacity:0.8"/>
		<stop  offset="0.2432" style="stop-color:#F8E7EA;stop-opacity:0.8"/>
		<stop  offset="0.4069" style="stop-color:#EFCAD0;stop-opacity:0.8"/>
		<stop  offset="0.5878" style="stop-color:#E3A1AC;stop-opacity:0.8"/>
		<stop  offset="0.7827" style="stop-color:#D46C7E;stop-opacity:0.8"/>
		<stop  offset="0.9865" style="stop-color:#C12D46;stop-opacity:0.8"/>
		<stop  offset="1" style="stop-color:#C02942;stop-opacity:0.8"/>
	</linearGradient>
	<polygon class="st18" points="873.5,1502.9 873.5,1532.9 1167,1667.5 1167,1416.4 	"/>
	<linearGradient id="SVGID_7_" gradientUnits="userSpaceOnUse" x1="563.0166" y1="1602.95" x2="563.0166" y2="1387.0397">
		<stop  offset="0" style="stop-color:#FFFFFF;stop-opacity:0.8"/>
		<stop  offset="0.1146" style="stop-color:#F9FCFC;stop-opacity:0.8"/>
		<stop  offset="0.2729" style="stop-color:#E7F2F2;stop-opacity:0.8"/>
		<stop  offset="0.4566" style="stop-color:#CAE3E2;stop-opacity:0.8"/>
		<stop  offset="0.6595" style="stop-color:#A1CDCB;stop-opacity:0.8"/>
		<stop  offset="0.8756" style="stop-color:#6DB2AF;stop-opacity:0.8"/>
		<stop  offset="1" style="stop-color:#4CA09D;stop-opacity:0.8"/>
	</linearGradient>
	<polygon class="st19" points="551.2,1387 432.8,1602.9 693.3,1602.9 581.2,1387 	"/>
	<path class="st20" d="M454.3,354.4c-0.2,0.1-56.2,20.3-56.2-15"/>
	<path class="st21" d="M146,385.8c4.9-0.7,6.8,6.3,6.8,6.3l114.1,0c49.3,0,112.5,26.9,147.6,2.3"/>
	<circle class="st22" cx="414.6" cy="394.5" r="4.9"/>
	<path class="st21" d="M141.4,391.4c3.1-3.3,6.7-0.5,6.7-0.5"/>
	<path class="st21" d="M143.3,395.8c0,0,4.5-0.5,4.4-5.1"/>
	<g>
		<g>
			<line class="st20" x1="398.2" y1="339.4" x2="398.2" y2="333.4"/>
			<line class="st23" x1="398.2" y1="319.3" x2="398.2" y2="270.1"/>
			<line class="st20" x1="398.2" y1="263.1" x2="398.2" y2="257.1"/>
		</g>
	</g>
	<circle class="st24" cx="454.4" cy="354" r="4.9"/>
	<g>
		<path class="st25" d="M138.6,371.9c0,0,74.4,0,123.9,0c62.5,0,154.1-152.7,176.8-23.2c4.7,26.6-14.8,39.3-14.8,39.3"/>
		<path class="st25" d="M433.4,325.1c7.3,14,17.1,20.8,17.1,20.8"/>
	</g>
	<path class="st26" d="M147.7,390.7c2.4,0.4,0.6,1.8,5.1,1.5"/>
	<g>
		<g>
			<line class="st25" x1="794.6" y1="1593" x2="768.9" y2="1593"/>
			<g>
				<polygon points="769.8,1590 764.6,1593 769.8,1596 				"/>
			</g>
		</g>
	</g>
	<circle class="st27" cx="794" cy="1593" r="15"/>
	<line class="st28" x1="-114" y1="457.3" x2="-114" y2="577.7"/>
</g>
<g id="Relay">
	<rect x="481.1" y="493.7" class="st29" width="250" height="250"/>
	<g>
		<g>
			<line class="st20" x1="432.7" y1="369.2" x2="432.8" y2="369.6"/>
			<line class="st30" x1="433.2" y1="370.6" x2="480.8" y2="492.7"/>
			<line class="st20" x1="481" y1="493.2" x2="481.1" y2="493.7"/>
		</g>
	</g>
	<g>
		<g>
			<line class="st20" x1="462.7" y1="339.2" x2="463.1" y2="339.4"/>
			<line class="st31" x1="464" y1="339.9" x2="730.3" y2="493.2"/>
			<line class="st20" x1="730.7" y1="493.4" x2="731.1" y2="493.7"/>
		</g>
	</g>
	<rect x="432.7" y="339.2" class="st20" width="30" height="30"/>
	<g>
		<g>
			<g>
				<line class="st25" x1="687.3" y1="519.2" x2="713" y2="519.2"/>
				<g>
					<polygon points="712.1,522.2 717.3,519.2 712.1,516.2 					"/>
				</g>
			</g>
		</g>
		<circle class="st24" cx="687.9" cy="519.2" r="15"/>
	</g>
	<g>
		<g>
			<g>
				<line class="st25" x1="687.3" y1="668.4" x2="713" y2="668.4"/>
				<g>
					<polygon points="712.1,671.4 717.3,668.4 712.1,665.4 					"/>
				</g>
			</g>
		</g>
		<circle class="st24" cx="687.9" cy="668.4" r="15"/>
	</g>
	<g>
		<g>
			<g>
				<line class="st25" x1="687.3" y1="718.1" x2="713" y2="718.1"/>
				<g>
					<polygon points="712.1,721.1 717.3,718.1 712.1,715.1 					"/>
				</g>
			</g>
		</g>
		<circle class="st24" cx="687.9" cy="718.1" r="15"/>
	</g>
	<g>
		<g>
			<g>
				<line class="st25" x1="687.3" y1="568.9" x2="713" y2="568.9"/>
				<g>
					<polygon points="712.1,571.9 717.3,568.9 712.1,566 					"/>
				</g>
			</g>
		</g>
		<circle class="st24" cx="687.9" cy="568.9" r="15"/>
	</g>
	<g>
		<g>
			<g>
				<line class="st25" x1="687.3" y1="618.7" x2="713" y2="618.7"/>
				<g>
					<polygon points="712.1,621.6 717.3,618.7 712.1,615.7 					"/>
				</g>
			</g>
		</g>
		<circle class="st24" cx="687.9" cy="618.7" r="15"/>
	</g>
	<circle class="st32" cx="634" cy="515.4" r="10"/>
	<circle class="st32" cx="634" cy="634" r="10"/>
	<circle class="st32" cx="634" cy="719.6" r="10"/>
	<rect x="488.9" y="500.4" class="st33" width="50" height="30"/>
	<text transform="matrix(1 0 0 1 509.5739 508.8828)"><tspan x="0" y="0" class="st34 st35">Ia</tspan><tspan x="-11.1" y="14.4" class="st34 st35">Flexor</tspan></text>
	<rect x="488.9" y="651.6" class="st33" width="50" height="30"/>
	<text transform="matrix(1 0 0 1 509.0524 660.1385)"><tspan x="0" y="0" class="st34 st35">Ib</tspan><tspan x="-16.8" y="14.4" class="st34 st35">Extensor</tspan></text>
	<rect x="488.9" y="702" class="st33" width="61.4" height="30"/>
	<text transform="matrix(1 0 0 1 494.8004 710.5571)"><tspan x="0" y="0" class="st34 st35">Hi Thresh.</tspan><tspan x="15" y="14.4" class="st34 st35">FRA</tspan></text>
	<rect x="488.9" y="550.8" class="st33" width="50" height="30"/>
	<text transform="matrix(1 0 0 1 509.5739 559.3014)"><tspan x="0" y="0" class="st34 st35">Ia</tspan><tspan x="-17.4" y="14.4" class="st34 st35">Extensor</tspan></text>
	<rect x="488.9" y="601.2" class="st33" width="50" height="30"/>
	<text transform="matrix(1 0 0 1 511.0319 609.72)"><tspan x="0" y="0" class="st34 st35">II</tspan><tspan x="-18.8" y="14.4" class="st34 st35">Extensor</tspan></text>
	<line class="st36" x1="538.9" y1="515.4" x2="619.3" y2="515.4"/>
	<path class="st25" d="M641.5,508.8c0,0,19.7-16.4,34.3-1.6"/>
	<path class="st36" d="M538.9,565.8H604v-31.5c0,0,13.3,0,30,0c16.7,0,28.2-3.5,36-11.4"/>
	<path class="st36" d="M604,565.8v35.1c0,0,12.7,0,34.4,0c21.7,0,28.1-1.1,35.9,6.6"/>
	<line class="st36" x1="604" y1="565.8" x2="670.3" y2="565.8"/>
	<path class="st25" d="M538.9,616.2H575v-29.6h69c0,0,18.2,0,28.9-7.9"/>
	<path class="st25" d="M575,616.2v88.7c0,0,69.1,0,78.3,0s13.6,4.3,16.7,5.7"/>
	<line class="st36" x1="538.9" y1="666.6" x2="670.3" y2="666.6"/>
	<path class="st36" d="M668.7,616.2H604v50.4v21.7h54.7c0,0,15.3,0,20,11.7"/>
	<line class="st36" x1="604" y1="634" x2="619.3" y2="634"/>
	<line class="st25" x1="550.3" y1="719.6" x2="619.3" y2="719.6"/>
	<line class="st25" x1="644" y1="719.6" x2="667.7" y2="719.6"/>
	<line class="st25" x1="638.1" y1="710.5" x2="675.8" y2="634"/>
	<polyline class="st37" points="611.4,515.4 621.4,520.4 621.4,510.4 	"/>
	<polyline class="st37" points="662.5,528.6 673.5,526.5 667.4,518.5 	"/>
	<polyline class="st37" points="661.5,566.4 671.5,571.4 671.5,561.4 	"/>
	<polyline class="st37" points="667.3,602.7 673,612.3 678.4,603.9 	"/>
	<polyline class="st37" points="661.2,616.2 671.2,621.2 671.2,611.2 	"/>
	<polyline class="st37" points="661.7,666.6 671.7,671.6 671.6,661.6 	"/>
	<polyline class="st37" points="675.5,693.7 675,704.9 684.1,700.8 	"/>
	<polyline class="st37" points="669,581.3 675.5,581.1 672.1,575.5 	"/>
	<polyline class="st37" points="615.4,719.6 621.1,722.9 621,716.4 	"/>
	<polyline class="st37" points="611.4,633.7 621.4,638.7 621.4,628.7 	"/>
	<path class="st25" d="M634,624v-70.1c0,0,36.4,4,45.6-16.9"/>
	<line class="st25" x1="672.9" y1="510.1" x2="678.4" y2="504.9"/>
	<line class="st25" x1="676.2" y1="535.2" x2="682.9" y2="538.8"/>
	<line class="st25" x1="673" y1="631.4" x2="678.3" y2="636.9"/>
	<line class="st25" x1="668.6" y1="714" x2="671.4" y2="707"/>
	<line class="st25" x1="667.5" y1="723.4" x2="667.8" y2="715.8"/>
</g>
<g id="Layer_6" class="st38">
	<circle class="st39" cx="365.9" cy="606.2" r="10"/>
	<circle class="st39" cx="321" cy="640.7" r="10"/>
	<g class="st40">
		<g>
			<g>
				<line class="st25" x1="406.8" y1="645.7" x2="432.5" y2="645.7"/>
				<g>
					<polygon points="431.6,648.7 436.8,645.7 431.6,642.7 					"/>
				</g>
			</g>
		</g>
		<circle class="st27" cx="407.4" cy="645.7" r="15"/>
	</g>
</g>
<g id="Afferents">
	<path class="st41" d="M140.4,366.2c1,0.2,1.1,0.7-2.6,1.9c-3.7,1.2-5.2,1.9-4.9,2.2c0.3,0.3,2.2,0.1,5.3-0.5
		c3.1-0.6,5.3-0.6,5.8-0.2c0.4,0.4-1,1.2-5.3,2.3c-4.3,1.1-6.2,2.1-5.9,2.6c0.3,0.6,2.6,0.7,6.7-0.1c4.1-0.7,5.6-0.6,5.3,0
		c-0.3,0.5-2.4,1.4-5.4,2.1c-3.1,0.7-3.7,1.2-3.3,1.5"/>
	<path class="st41" d="M138.6,371.9"/>
	<polyline class="st37" points="425.9,386.5 419.5,387.6 423.6,392.6 	"/>
	<polyline class="st37" points="453,344.5 448.5,349.2 446.7,343 	"/>
</g>
<g id="Reflex">
	<rect x="403.4" y="375.6" class="st21" width="30" height="30"/>
	<rect x="212.7" y="493.7" class="st42" width="250" height="250"/>
	<g>
		<g>
			<line class="st43" x1="403.4" y1="375.6" x2="403" y2="375.9"/>
			<line class="st44" x1="402.2" y1="376.4" x2="213.6" y2="493.1"/>
			<line class="st43" x1="213.2" y1="493.4" x2="212.7" y2="493.7"/>
		</g>
	</g>
	<g>
		<g>
			<line class="st43" x1="433.4" y1="405.6" x2="433.6" y2="406.1"/>
			<line class="st45" x1="433.9" y1="407" x2="462.4" y2="492.7"/>
			<line class="st43" x1="462.6" y1="493.2" x2="462.7" y2="493.7"/>
		</g>
	</g>
	<g>
		<circle class="st32" cx="319.4" cy="560.3" r="10"/>
		<circle class="st32" cx="364.3" cy="594.8" r="10"/>
		<circle class="st32" cx="421.1" cy="594.8" r="10"/>
		<g>
			<g>
				<g>
					<line class="st25" x1="405.2" y1="555.3" x2="430.9" y2="555.3"/>
					<g>
						<polygon points="430.1,558.2 435.2,555.3 430.1,552.3 						"/>
					</g>
				</g>
			</g>
			<circle class="st27" cx="405.8" cy="555.3" r="15"/>
		</g>
		<path class="st33" d="M424.7,540.3"/>
		<path class="st25" d="M212.7,519h151.6c18.8,0,24.5,3.2,29.1,21.3"/>
		<path class="st25" d="M337.8,519c25,0,26.6,46.7,26.6,60.1"/>
		<path class="st25" d="M297.5,519c15,0,22,10.8,22,26.6"/>
		<path class="st25" d="M212.7,509.3c0,0,126.1,0,151.1,0c25,0,34.8,7.6,41.4,26.9"/>
		<line class="st25" x1="411.3" y1="569.2" x2="416.3" y2="582.3"/>
		<line class="st46" x1="411.1" y1="594.8" x2="376.3" y2="594.8"/>
		<line class="st25" x1="376.3" y1="598.7" x2="376.3" y2="591"/>
		<path class="st25" d="M393.7,569.2c-11.5,14,11.5,25.6,11.5,25.6s-7.3,30.7,9,37.7"/>
		<line class="st25" x1="396.4" y1="572" x2="391" y2="566.5"/>
		<line class="st25" x1="411.1" y1="634.7" x2="417.4" y2="630.3"/>
		<line class="st25" x1="407.7" y1="663.7" x2="399.7" y2="664.5"/>
		<path class="st25" d="M315.1,569.2c0,0-53.1,96.4-9.2,107.8"/>
		<path class="st25" d="M329.4,560.3c0,0,38.9,2.6,58.4-1.4"/>
		<line class="st25" x1="388.7" y1="562.5" x2="386.8" y2="555.1"/>
		<line class="st25" x1="305.8" y1="680.9" x2="305.9" y2="673.2"/>
		<polyline class="st37" points="319.4,542.7 316.2,548.4 322.7,548.4 		"/>
		<polyline class="st37" points="364.3,576.3 361.1,582 367.6,582 		"/>
		<polyline class="st37" points="391.7,536.6 392,543.1 397.5,539.6 		"/>
		<polyline class="st37" points="404.7,532.5 402,538.5 408.5,537.9 		"/>
		<polyline class="st37" points="414.9,579.1 413.9,585.6 420,583.3 		"/>
		<path class="st25" d="M359.2,603.3c0,0-25.3,33.8-6.7,35.6"/>
		<line class="st25" x1="351.7" y1="642.7" x2="353.2" y2="635.2"/>
		<path class="st25" d="M369.5,603.3c0,0,10.9,37.1,34.2,61.2"/>
	</g>
	<g class="st47">
		<circle class="st32" cx="319.4" cy="677.1" r="10"/>
		<circle class="st32" cx="364.3" cy="642.5" r="10"/>
		<circle class="st32" cx="421.1" cy="642.5" r="10"/>
		<g>
			<g>
				<g>
					<line class="st25" x1="405.2" y1="682.1" x2="430.9" y2="682.1"/>
					<g>
						<polygon points="430,685.1 435.2,682.1 430,679.1 						"/>
					</g>
				</g>
			</g>
			<circle class="st27" cx="405.8" cy="682.1" r="15"/>
		</g>
		<path class="st33" d="M424.6,697.1"/>
		<path class="st25" d="M212.7,718.3h151.6c18.8,0,24.5-3.2,29.1-21.3"/>
		<path class="st25" d="M337.7,718.3c25,0,26.6-46.7,26.6-60.1"/>
		<path class="st25" d="M297.4,718.3c15,0,22-10.8,22-26.6"/>
		<path class="st25" d="M212.7,728c0,0,126.1,0,151.1,0c25,0,34.8-7.6,41.4-26.9"/>
		<line class="st25" x1="411.2" y1="668.1" x2="416.2" y2="655.1"/>
		<line class="st46" x1="411.1" y1="642.5" x2="376.2" y2="642.5"/>
		<line class="st25" x1="376.2" y1="638.7" x2="376.2" y2="646.4"/>
		<path class="st25" d="M393.6,668.1c-11.5-14,11.5-25.6,11.5-25.6s-7.3-30.7,9-37.7"/>
		<line class="st25" x1="396.4" y1="665.4" x2="390.9" y2="670.8"/>
		<line class="st25" x1="411" y1="602.7" x2="417.3" y2="607.1"/>
		<line class="st25" x1="407.6" y1="573.7" x2="399.7" y2="572.8"/>
		<path class="st25" d="M315,668.1c0,0-53.1-96.4-9.2-107.8"/>
		<path class="st25" d="M329.4,677.1c0,0,38.9-2.6,58.4,1.4"/>
		<line class="st25" x1="388.7" y1="674.8" x2="386.8" y2="682.2"/>
		<line class="st25" x1="305.8" y1="556.5" x2="305.8" y2="564.1"/>
		<polyline class="st37" points="319.3,694.6 316.1,689 322.6,689 		"/>
		<polyline class="st37" points="364.3,661 361,655.4 367.5,655.4 		"/>
		<polyline class="st37" points="391.6,700.8 391.9,694.2 397.4,697.8 		"/>
		<polyline class="st37" points="404.7,704.8 401.9,698.9 408.4,699.5 		"/>
		<polyline class="st37" points="414.9,658.2 413.8,651.8 419.9,654.1 		"/>
		<path class="st25" d="M359.1,634c0,0-25.3-33.8-6.7-35.6"/>
		<line class="st25" x1="351.7" y1="594.6" x2="353.1" y2="602.2"/>
		<path class="st25" d="M369.5,634c0,0,10.9-37.1,34.2-61.2"/>
	</g>
</g>
<g id="Text">
	<rect x="24.5" y="263.2" class="st28" width="44.5" height="10.2"/>
	<text transform="matrix(1 0 0 1 24.4565 270.2754)" class="st34 st48">Tendon</text>
	<rect x="24.5" y="357.6" class="st28" width="74.9" height="9.3"/>
	<text transform="matrix(1 0 0 1 24.4565 364.6904)" class="st34 st48">Muscle Spindle</text>
	<rect x="215.5" y="344.3" class="st28" width="64.8" height="21.9"/>
	<text transform="matrix(1 0 0 1 217.2049 351.4267)"><tspan x="0" y="0" class="st34 st48">Proprioceptive</tspan><tspan x="11.7" y="12" class="st34 st48">Afferents</tspan></text>
	<rect x="227.6" y="398.2" class="st28" width="40.7" height="24"/>
	<text transform="matrix(1 0 0 1 233.2847 405.3459)"><tspan x="0" y="0" class="st34 st48">Muscle </tspan><tspan x="-3.8" y="12" class="st34 st48">Efferents</tspan></text>
	<rect x="103.2" y="226.7" class="st28" width="132" height="32.5"/>
	<text transform="matrix(1 0 0 1 122.1479 235.9375)"><tspan x="0" y="0" class="st34 st49">Muscle Dynamics </tspan><tspan x="18.1" y="15.6" class="st34 st49">[OpenSim]</tspan></text>
	<rect x="403.4" y="226.7" class="st28" width="132" height="32.5"/>
	<text transform="matrix(1 0 0 1 428.1597 235.9375)"><tspan x="0" y="0" class="st34 st49">Spinal Network</tspan><tspan x="12.3" y="15.6" class="st34 st49"> [NEURON]</tspan></text>
	<line class="st50" x1="150.7" y1="271.8" x2="25.1" y2="271.8"/>
	<line class="st50" x1="131" y1="366.3" x2="25.1" y2="366.3"/>
	<rect x="299.5" y="264.7" class="st28" width="98.7" height="22.4"/>
	<text transform="matrix(1 0 0 1 301.8287 271.8403)"><tspan x="0" y="0" class="st34 st48">Dorsal Spinocerebellar </tspan><tspan x="36.6" y="12" class="st34 st48">Tract</tspan></text>
	<rect x="279.5" y="473.8" class="st28" width="132" height="12"/>
	<text transform="matrix(1 0 0 1 279.5424 483.0645)" class="st34 st49">Local reflex circuitry</text>
	<rect x="530.9" y="457.6" class="st28" width="132" height="32.5"/>
	<text transform="matrix(1 0 0 1 530.892 466.8116)"><tspan x="0" y="0" class="st34 st49">Local relay circuitry</tspan><tspan x="0" y="15.6" class="st34 st49">(Clarke’s Column)</tspan></text>
	<rect x="218" y="522.1" class="st28" width="53.5" height="10.9"/>
	<text transform="matrix(1 0 0 1 223.6668 529.2301)" class="st34 st48">Ia afferent</text>
	<rect x="218" y="496.7" class="st28" width="53.5" height="10.9"/>
	<text transform="matrix(1 0 0 1 223.2318 503.821)" class="st34 st48">Ib afferent</text>
	<rect x="301" y="590.8" class="st28" width="52.1" height="20.2"/>
	<text transform="matrix(1 0 0 1 323.4336 597.8637)"><tspan x="0" y="0" class="st34 st48">Ia</tspan><tspan x="-22.4" y="12" class="st34 st48"> interneuron</tspan></text>
	<rect x="257.3" y="554" class="st28" width="52.1" height="20.2"/>
	<text transform="matrix(1 0 0 1 279.3146 561.1237)"><tspan x="0" y="0" class="st34 st48">Ib</tspan><tspan x="-21.9" y="12" class="st34 st48"> interneuron</tspan></text>
	<rect x="413.7" y="608.5" class="st28" width="52.1" height="20.2"/>
	<text transform="matrix(1 0 0 1 420.9577 615.6482)"><tspan x="0" y="0" class="st34 st48">Renshaw</tspan><tspan x="11.7" y="12" class="st34 st48">cell</tspan></text>
	<rect x="409.1" y="516.7" class="st28" width="52.1" height="25.9"/>
	<text transform="matrix(1 0 0 1 422.3708 523.77)"><tspan x="0" y="0" class="st34 st48">Motor</tspan><tspan x="-2.9" y="12" class="st34 st48">Neuron</tspan></text>
	<rect x="215.2" y="689.6" class="st28" width="52.1" height="10"/>
	<text transform="matrix(1 0 0 1 228.4169 696.7209)" class="st34 st48">Flexor</text>
	<rect x="215.2" y="702.7" class="st28" width="52.1" height="10"/>
	<text transform="matrix(1 0 0 1 223.162 709.8256)" class="st47 st34 st48">Extensor</text>
	<g>
		<polyline class="st37" points="120,702.1 130,707 129.9,697 		"/>
		<line class="st36" x1="127.5" y1="702" x2="77.3" y2="702"/>
		<line class="st36" x1="126.2" y1="728.1" x2="76.1" y2="728.1"/>
		<line class="st36" x1="126.2" y1="721.1" x2="126.2" y2="733.8"/>
		<rect x="130.9" y="695.5" class="st28" width="67.7" height="13"/>
		<text transform="matrix(1 0 0 1 135.8225 705.4581)" class="st34 st51">Excitatory</text>
		<rect x="128.7" y="720.9" class="st28" width="67.7" height="13"/>
		<text transform="matrix(1 0 0 1 134.1114 730.8715)" class="st34 st51">Inhibitory</text>
		<rect x="69.3" y="689" class="st25" width="129.2" height="56"/>
	</g>
	<rect x="211.9" y="752" class="st28" width="251.6" height="56.4"/>
	<text transform="matrix(1 0 0 1 211.9079 756.9702)"><tspan x="0" y="0" class="st34 st52">Rybak, I. a, Shevtsova, N. a, Lafreniere-Roula, M., &amp; McCrea, D. a. (2006). Modelling </tspan><tspan x="0" y="8.4" class="st34 st52">spinal circuitry involved in locomotor pattern generation: insights from deletions </tspan><tspan x="0" y="16.8" class="st34 st52">during fictive locomotion. The Journal of Physiology, 577(Pt 2), 617–639. </tspan><tspan x="0" y="25.2" class="st34 st52">http://doi.org/10.1113/jphysiol.2006.118703</tspan></text>
	<rect x="480.3" y="752" class="st28" width="251.6" height="21.6"/>
	<text transform="matrix(1 0 0 1 480.3346 756.9692)"><tspan x="0" y="0" class="st34 st52">Bosco, G., &amp; Poppele, R. E. (2001). Proprioception from a spinocerebellar perspective. </tspan><tspan x="0" y="8.4" class="st34 st52">Physiological Reviews, 81(2), 539–568.</tspan></text>
</g>
</svg>
